<?xml version="1.0" encoding="UTF-8" standalone="no"?><!-- Generator: Gravit.io --><svg xmlns="http://www.w3.org/2000/svg" xmlns:xlink="http://www.w3.org/1999/xlink" style="isolation:isolate" viewBox="0 0 1269 634.5" width="1269pt" height="634.5pt"><defs><clipPath id="_clipPath_oBcFa1n40iiUegRGBcwMoVeeRdPuScVI"><rect width="1269" height="634.5"/></clipPath></defs><g clip-path="url(#_clipPath_oBcFa1n40iiUegRGBcwMoVeeRdPuScVI)"><rect x="0" y="0" width="1269" height="634.5" transform="matrix(1,0,0,1,0,0)" fill="rgb(64,118,186)"/><g style="opacity:0.3;"><polygon points="727.942,588.329,580.442,591.793,510,472.068,587.058,348.88,734.558,345.416,805,465.14" fill="rgb(74,134,232)"/><polygon points="270.661,299.062,134.849,256.298,105.009,120.486,210.981,27.438,346.793,70.202,376.633,206.014" fill="rgb(36,193,178)"/><polygon points="1150.651,309.089,1018.366,344.534,921.527,247.696,956.973,115.411,1089.257,79.966,1186.096,176.804" fill="rgb(44,82,142)"/><polygon points="774.299,316.836,765.48,319.138,759.024,312.849,761.387,304.259,770.206,301.957,776.662,308.246" fill="rgb(36,193,178)"/><polygon points="540.42,406.789,531.601,409.091,525.145,402.803,527.508,394.213,536.327,391.911,542.783,398.199" fill="rgb(44,82,142)"/><polygon points="669.177,214.183,660.358,216.485,653.902,210.197,656.265,201.606,665.084,199.305,671.54,205.593" fill="rgb(74,134,232)"/></g><path d=" M 874.42 582.788 C 876.403 581.836 894.09 575.967 894.724 576.84 C 895.121 577.395 891.631 595.716 891.076 596.271 C 890.917 596.509 878.386 586.516 874.42 582.788 Z  M 972.609 181.705 C 972.609 181.626 968.723 174.25 967.057 170.443 C 966.978 170.205 966.819 169.57 966.74 169.174 C 966.661 168.856 966.502 168.618 966.264 168.46 C 966.026 168.301 965.788 168.38 965.63 168.539 L 955.24 178.295 C 955.24 178.295 955.24 178.295 955.24 178.295 C 955.081 178.453 955.002 178.691 954.923 178.929 C 954.923 179.167 954.923 179.484 955.081 179.722 C 955.16 179.801 956.192 181.705 956.747 182.577 C 958.65 185.512 961.902 192.174 961.902 192.254 C 962.061 192.491 962.219 192.65 962.457 192.729 C 962.695 192.729 962.854 192.65 963.012 192.491 C 963.012 192.491 964.44 190.509 965.154 189.636 C 966.344 188.367 967.533 187.098 968.802 185.909 C 969.754 184.957 970.071 184.798 970.468 184.64 C 970.864 184.402 971.34 184.243 972.451 183.133 C 972.768 182.736 972.847 182.102 972.609 181.705 Z  M 26.173 610.944 C 26.173 610.944 26.173 610.944 26.173 610.944 C 26.173 610.389 25.777 609.992 25.221 609.992 C 25.142 609.992 24.983 609.992 24.904 610.072 C 23.635 610.23 13.562 610.151 7.297 610.072 C 7.059 610.072 6.821 610.151 6.583 610.389 C 6.424 610.548 6.266 610.786 6.266 611.103 C 6.266 611.261 6.266 614.989 6.345 615.782 L 6.662 626.569 C 6.662 626.807 6.821 627.045 6.98 627.283 C 7.138 627.441 7.376 627.52 7.614 627.52 C 7.614 627.52 7.693 627.52 7.693 627.52 C 13.483 626.965 19.352 626.807 25.142 627.045 C 25.38 627.045 25.697 626.965 25.856 626.807 C 26.015 626.648 26.173 626.331 26.173 626.093 C 26.094 621.255 26.094 615.624 26.173 610.944 Z " fill="rgb(38,171,215)"/><path d=" M 135.704 304.084 C 136.735 302.101 147.045 286.635 148.076 286.953 C 148.711 287.191 157.197 303.767 157.197 304.481 C 157.118 304.719 141.097 304.56 135.704 304.084 Z  M 473.02 564.546 C 472.94 564.467 467.706 558.043 465.326 554.632 C 465.168 554.394 464.93 553.839 464.771 553.443 C 464.613 553.125 464.454 552.887 464.216 552.808 C 463.978 552.729 463.74 552.808 463.582 553.046 L 455.254 564.705 C 455.254 564.705 455.254 564.705 455.254 564.705 C 455.095 564.864 455.095 565.102 455.095 565.419 C 455.095 565.657 455.254 565.974 455.412 566.133 C 455.492 566.212 456.84 567.877 457.633 568.591 C 460.092 571.05 464.613 576.919 464.692 576.998 C 464.851 577.236 465.088 577.316 465.326 577.316 C 465.564 577.316 465.723 577.157 465.802 576.919 C 465.802 576.919 466.754 574.698 467.389 573.667 C 468.261 572.16 469.213 570.733 470.164 569.305 C 470.878 568.195 471.196 567.957 471.513 567.719 C 471.909 567.402 472.306 567.164 473.178 565.815 C 473.416 565.577 473.337 564.943 473.02 564.546 Z  M 576.998 142.683 C 576.998 142.683 576.998 142.683 576.998 142.683 C 577.474 142.842 578.03 142.525 578.109 142.049 C 578.109 141.969 578.109 141.89 578.109 141.731 C 578.267 140.621 580.33 131.738 581.678 126.265 C 581.757 126.028 581.678 125.79 581.519 125.631 C 581.361 125.393 581.123 125.314 580.885 125.234 C 580.726 125.234 577.157 124.362 576.364 124.203 L 565.736 122.062 C 565.498 121.983 565.181 122.062 565.022 122.221 C 564.864 122.379 564.705 122.538 564.626 122.696 C 564.626 122.696 564.626 122.776 564.626 122.776 C 563.991 127.931 562.881 133.166 561.533 138.162 C 561.453 138.4 561.533 138.638 561.691 138.876 C 561.85 139.114 562.088 139.193 562.326 139.273 C 566.926 140.304 572.398 141.573 576.998 142.683 Z  M 577.792 141.256 C 577.712 141.176 577.633 141.097 577.474 141.097 C 577.633 141.097 577.712 141.176 577.792 141.256 Z " fill="rgb(42,191,239)"/><g><path d=" M 554.87 374.91 C 553.681 374.91 552.65 374.276 552.094 373.086 C 551.46 371.579 552.094 369.755 553.601 369.12 C 556.536 367.851 558.994 365.393 560.263 362.379 C 561.533 359.365 561.612 355.954 560.422 352.941 C 560.184 352.227 559.788 351.513 559.47 350.72 C 558.836 349.372 558.043 347.785 557.646 346.04 C 556.932 342.789 557.488 339.22 559.232 335.888 C 560.581 333.43 562.484 331.05 565.26 328.671 C 566.529 327.561 568.433 327.719 569.464 328.988 C 570.574 330.257 570.416 332.161 569.147 333.192 C 566.926 335.175 565.419 336.92 564.467 338.744 C 563.357 340.806 562.96 342.947 563.436 344.771 C 563.674 345.882 564.229 346.992 564.784 348.182 C 565.181 349.054 565.577 349.927 565.974 350.799 C 567.64 355.241 567.56 360.317 565.736 364.758 C 563.912 369.12 560.343 372.769 555.981 374.672 C 555.663 374.831 555.267 374.91 554.87 374.91 Z  M 587.23 334.223 C 588.419 334.064 589.609 334.619 590.244 335.73 C 591.116 337.157 590.561 339.061 589.133 339.933 C 586.199 341.599 584.057 344.375 583.105 347.468 C 582.154 350.641 582.471 354.13 583.978 357.065 C 584.295 357.779 584.771 358.413 585.247 359.206 C 586.04 360.555 586.992 361.982 587.626 363.727 C 588.737 366.9 588.578 370.627 587.15 374.196 C 586.04 376.893 584.374 379.431 581.757 382.207 C 580.568 383.476 578.664 383.555 577.395 382.366 C 576.126 381.255 576.047 379.272 577.236 378.083 C 579.299 375.862 580.647 373.879 581.44 371.976 C 582.312 369.755 582.471 367.534 581.836 365.71 C 581.44 364.679 580.805 363.569 580.092 362.458 C 579.616 361.665 579.061 360.793 578.585 359.92 C 576.364 355.637 575.888 350.482 577.236 345.803 C 578.664 341.123 581.836 337.078 586.119 334.699 C 586.437 334.382 586.833 334.223 587.23 334.223 Z  M 207.244 468.658 C 211.764 474.051 214.382 481.11 214.699 486.424 C 215.096 492.213 212.795 499.431 206.609 502.603 C 204.23 503.793 201.295 504.348 197.726 504.348 C 191.46 504.269 187.495 502.048 185.512 497.686 C 183.846 493.958 183.688 488.644 186.94 485.075 C 189.478 482.299 193.126 481.823 195.823 483.806 C 196.774 484.52 197.012 485.948 196.298 486.899 C 195.585 487.851 194.157 488.089 193.205 487.375 C 191.778 486.344 190.35 487.851 190.191 488.01 C 188.288 490.072 188.526 493.562 189.557 495.862 C 190.747 498.558 193.285 499.827 197.805 499.907 C 200.661 499.907 202.881 499.51 204.626 498.638 C 208.354 496.734 210.733 491.817 210.337 486.741 C 209.94 480.951 206.133 472.306 200.026 467.785 C 196.695 465.326 193.285 464.533 189.795 465.326 C 187.336 465.882 184.877 467.23 182.102 469.292 C 176.867 473.337 172.822 478.651 170.839 484.361 C 168.698 490.468 169.174 496.893 172.346 503.317 C 172.901 504.427 172.425 505.776 171.315 506.252 C 170.205 506.807 168.856 506.331 168.38 505.221 C 164.732 497.765 164.098 489.993 166.636 482.855 C 168.936 476.351 173.456 470.244 179.405 465.723 C 182.657 463.264 185.75 461.678 188.764 460.964 C 193.523 459.854 198.281 460.964 202.643 464.137 C 204.309 465.485 205.895 466.992 207.244 468.658 Z " fill="rgb(255,255,255)" fill-opacity="0.12"/><circle vector-effect="non-scaling-stroke" cx="803.9908125000001" cy="122.0619375" r="5.63118750000001" fill="rgb(255,255,255)" fill-opacity="0.12"/><circle vector-effect="non-scaling-stroke" cx="812.3979374999999" cy="104.7718125" r="5.63118750000001" fill="rgb(255,255,255)" fill-opacity="0.12"/><circle vector-effect="non-scaling-stroke" cx="822.7085625" cy="118.0963125" r="5.63118750000001" fill="rgb(255,255,255)" fill-opacity="0.12"/><path d=" M 1196.588 235.717 C 1192.781 231.434 1188.894 227.151 1184.849 222.868 C 1189.291 218.427 1193.653 213.747 1197.222 208.433 C 1198.174 207.085 1197.777 205.181 1196.429 204.309 C 1195.081 203.357 1193.177 203.754 1192.305 205.102 C 1188.974 210.02 1185.087 214.302 1180.805 218.506 C 1176.998 214.54 1173.111 210.575 1169.146 206.688 C 1167.956 205.499 1166.052 205.499 1164.942 206.688 C 1163.752 207.878 1163.752 209.782 1164.942 210.892 C 1168.828 214.699 1172.635 218.665 1176.442 222.63 C 1175.57 223.503 1174.618 224.375 1173.666 225.168 C 1170.415 228.182 1167.004 231.355 1163.832 234.686 C 1162.721 235.875 1162.721 237.7 1163.832 238.889 C 1163.832 238.889 1163.832 238.889 1163.832 238.889 C 1165.021 240 1166.925 240 1168.035 238.81 C 1171.128 235.637 1174.459 232.544 1177.632 229.53 C 1178.584 228.658 1179.456 227.786 1180.408 226.913 C 1184.294 231.117 1188.181 235.32 1191.988 239.524 C 1192.067 239.603 1192.067 239.603 1192.146 239.682 C 1193.257 240.793 1195.081 240.872 1196.27 239.841 C 1197.619 238.889 1197.698 236.986 1196.588 235.717 Z  M 259.828 197.171 L 259.511 195.109 C 258.321 186.305 257.766 176.708 257.686 165.763 C 257.686 161.401 257.686 156.642 257.845 151.09 C 257.845 150.535 257.845 149.901 257.845 149.266 C 257.845 145.3 257.845 140.383 260.938 138.559 C 262.683 137.528 264.983 137.766 267.68 139.273 C 272.201 141.731 278.149 146.173 281.559 151.09 C 285.922 157.277 287.349 164.494 285.525 171.474 C 282.987 181.229 273.628 196.061 261.731 196.933 L 259.828 197.171 Z  M 263.397 142.128 C 263.238 142.128 263.159 142.128 263.08 142.207 C 263 142.287 262.524 142.604 262.207 144.349 C 261.969 145.856 261.969 147.68 261.969 149.345 C 261.969 149.98 261.969 150.694 261.969 151.249 C 261.811 156.722 261.811 161.401 261.811 165.763 C 261.89 175.677 262.366 184.402 263.397 192.491 C 272.121 190.35 279.577 178.136 281.639 170.443 C 283.146 164.732 281.956 158.704 278.308 153.549 L 278.308 153.549 C 275.214 149.187 269.662 145.142 265.697 143 C 264.587 142.366 263.793 142.128 263.397 142.128 Z  M 409.49 48.222 C 409.411 48.222 409.332 48.222 409.173 48.143 C 407.27 47.587 406.001 47.429 403.859 47.587 C 403.304 47.587 402.828 47.191 402.749 46.636 C 402.749 46.081 403.145 45.605 403.701 45.525 C 406.159 45.367 407.587 45.525 409.728 46.16 C 410.284 46.318 410.601 46.874 410.442 47.429 C 410.284 47.905 409.887 48.222 409.49 48.222 Z  M 401.401 55.915 C 401.004 55.915 400.607 55.677 400.449 55.281 C 399.814 53.615 399.497 51.87 399.418 50.046 C 399.418 49.491 399.814 49.015 400.37 49.015 C 400.925 49.015 401.401 49.412 401.401 49.967 C 401.48 51.553 401.797 53.06 402.273 54.567 C 402.432 55.122 402.194 55.677 401.639 55.836 C 401.638 55.915 401.48 55.915 401.401 55.915 Z  M 391.883 51.077 C 391.566 51.077 391.249 50.919 391.09 50.681 C 390.773 50.205 390.852 49.57 391.249 49.253 C 392.676 48.143 394.183 47.191 395.849 46.398 C 396.325 46.16 396.959 46.398 397.197 46.874 C 397.435 47.35 397.197 47.984 396.721 48.222 C 395.214 48.936 393.787 49.808 392.518 50.839 C 392.359 50.998 392.121 51.077 391.883 51.077 Z  M 396.959 43.86 C 396.563 43.86 396.245 43.622 396.007 43.305 C 395.611 42.511 395.056 41.798 394.104 40.608 C 393.866 40.291 393.549 39.894 393.231 39.498 C 392.914 39.022 392.993 38.387 393.39 38.07 C 393.866 37.753 394.5 37.832 394.818 38.229 C 395.135 38.625 395.452 39.022 395.69 39.339 C 396.721 40.608 397.356 41.401 397.832 42.432 C 398.069 42.908 397.832 43.543 397.356 43.781 C 397.276 43.86 397.118 43.86 396.959 43.86 Z  M 401.876 43.622 C 401.638 43.622 401.48 43.543 401.242 43.463 C 400.766 43.146 400.687 42.511 401.004 42.036 C 401.956 40.687 402.828 39.339 403.621 37.911 C 403.859 37.436 404.494 37.198 404.97 37.515 C 405.446 37.753 405.683 38.387 405.366 38.863 C 404.573 40.37 403.621 41.877 402.59 43.305 C 402.432 43.463 402.194 43.622 401.876 43.622 Z  M 816.364 303.608 C 816.284 303.608 816.205 303.608 816.046 303.529 C 814.143 302.974 812.874 302.815 810.732 302.974 C 810.177 302.974 809.701 302.577 809.622 302.022 C 809.622 301.467 810.019 300.991 810.574 300.912 C 813.032 300.753 814.46 300.912 816.601 301.546 C 817.157 301.705 817.474 302.26 817.315 302.815 C 817.157 303.291 816.76 303.608 816.364 303.608 Z  M 808.274 311.302 C 807.877 311.302 807.481 311.064 807.322 310.667 C 806.687 309.001 806.37 307.257 806.291 305.432 C 806.291 304.877 806.687 304.401 807.243 304.401 C 807.798 304.401 808.274 304.798 808.274 305.353 C 808.353 306.939 808.67 308.446 809.146 309.953 C 809.305 310.508 809.067 311.064 808.512 311.222 C 808.512 311.302 808.353 311.302 808.274 311.302 Z  M 798.756 306.463 C 798.439 306.463 798.122 306.305 797.963 306.067 C 797.646 305.591 797.725 304.957 798.122 304.639 C 799.549 303.529 801.056 302.577 802.722 301.784 C 803.198 301.546 803.832 301.784 804.07 302.26 C 804.308 302.736 804.07 303.37 803.594 303.608 C 802.087 304.322 800.66 305.194 799.391 306.226 C 799.232 306.384 798.994 306.463 798.756 306.463 Z  M 803.832 299.246 C 803.436 299.246 803.118 299.008 802.88 298.691 C 802.484 297.898 801.929 297.184 800.977 295.994 C 800.739 295.677 800.422 295.28 800.104 294.884 C 799.787 294.408 799.867 293.774 800.263 293.456 C 800.739 293.139 801.373 293.218 801.691 293.615 C 802.008 294.011 802.325 294.408 802.563 294.725 C 803.594 295.994 804.229 296.787 804.705 297.818 C 804.943 298.294 804.705 298.929 804.229 299.167 C 804.149 299.246 803.991 299.246 803.832 299.246 Z  M 808.75 299.008 C 808.512 299.008 808.353 298.929 808.115 298.85 C 807.639 298.532 807.56 297.898 807.877 297.422 C 808.829 296.074 809.701 294.725 810.494 293.298 C 810.732 292.822 811.367 292.584 811.843 292.901 C 812.319 293.139 812.557 293.774 812.239 294.249 C 811.446 295.756 810.494 297.263 809.463 298.691 C 809.305 298.85 809.067 299.008 808.75 299.008 Z  M 1054.618 454.778 C 1053.508 454.778 1052.318 454.619 1051.049 454.223 C 1044.387 452.081 1037.883 444.15 1036.218 438.36 C 1035.901 437.25 1035.663 436.06 1035.504 434.87 C 1029.08 437.488 1023.211 443.278 1023.29 451.526 C 1023.29 452.716 1022.338 453.667 1021.148 453.747 C 1021.148 453.747 1021.148 453.747 1021.148 453.747 C 1019.959 453.747 1019.007 452.795 1019.007 451.605 C 1018.928 446.291 1020.91 441.374 1024.559 437.329 C 1027.414 434.157 1031.221 431.698 1035.425 430.35 C 1035.821 425.194 1037.883 420.118 1041.294 416.549 C 1046.846 410.68 1055.729 409.49 1062.946 408.539 L 1063.501 408.459 C 1064.691 408.301 1065.801 409.173 1065.96 410.284 C 1066.119 411.473 1065.246 412.584 1064.136 412.742 L 1063.581 412.822 C 1056.76 413.773 1048.987 414.804 1044.546 419.484 C 1042.166 422.022 1040.58 425.591 1040.025 429.319 C 1046.29 428.525 1054.063 430.35 1059.298 433.839 C 1062.708 436.139 1064.929 440.026 1065.008 443.912 C 1065.167 447.322 1063.66 450.495 1060.884 452.716 C 1058.981 453.985 1056.918 454.778 1054.618 454.778 Z  M 1039.787 433.601 C 1039.866 434.791 1040.104 435.981 1040.421 437.091 C 1041.77 441.691 1047.322 448.354 1052.398 450.019 C 1054.618 450.733 1056.442 450.416 1058.108 449.147 C 1060.25 447.481 1060.646 445.34 1060.567 443.912 C 1060.487 441.374 1058.981 438.836 1056.76 437.329 C 1052.239 434.236 1045.101 432.729 1039.787 433.601 Z " fill="rgb(255,255,255)" fill-opacity="0.12"/></g></g></svg>