<?xml version="1.0" encoding="UTF-8" standalone="no"?><!-- Generator: Gravit.io --><svg xmlns="http://www.w3.org/2000/svg" xmlns:xlink="http://www.w3.org/1999/xlink" style="isolation:isolate" viewBox="0 0 300 300" width="300pt" height="300pt"><defs><clipPath id="_clipPath_vUUNIKNnWwfnmA80vh5dCozFdHhlLDZK"><rect width="300" height="300"/></clipPath></defs><g clip-path="url(#_clipPath_vUUNIKNnWwfnmA80vh5dCozFdHhlLDZK)"><path d=" M 184.753 90.391 L 186.585 92.596 C 187.99 94.33 190.118 95.325 192.409 95.325 L 192.414 95.325 C 194.252 95.325 196.07 94.672 197.527 93.487 C 199.161 92.16 200.21 90.308 200.477 88.266 C 200.746 86.196 200.187 84.181 198.9 82.595 L 195.858 78.851 C 195.545 78.461 195.187 78.105 194.76 77.77 C 180.151 61.412 159.407 52.034 137.843 52.034 C 102.164 52.034 71.365 76.749 62.932 112.138 L 62.517 113.876 L 78.733 113.876 L 79.032 112.861 C 86.727 86.474 110.912 68.044 137.843 68.044 C 155.935 68.044 173.038 76.19 184.753 90.391 Z " fill="rgb(42,191,239)"/><path d=" M 213.156 107.317 C 212.869 107.274 212.586 107.242 212.287 107.242 L 210.842 107.242 L 210.355 107.222 C 210.105 107.208 209.847 107.196 209.589 107.196 L 203.256 107.242 C 198.909 107.242 195.371 110.815 195.371 115.204 C 195.371 119.597 198.909 123.172 203.256 123.172 L 209.561 123.207 C 239.144 123.6 263.214 147.985 263.214 177.571 C 263.214 207.559 238.815 231.956 208.832 231.956 C 199.302 231.956 189.895 229.41 181.629 224.599 L 137.434 198.109 C 136.19 197.361 134.767 196.971 133.322 196.971 C 130.524 196.971 127.892 198.459 126.453 200.856 C 125.354 202.694 125.033 204.844 125.552 206.917 C 126.071 208.993 127.37 210.739 129.202 211.84 L 176.241 240.039 C 176.763 240.351 177.334 240.598 178.022 240.807 C 187.71 245.558 198.069 247.966 208.832 247.966 C 247.645 247.966 279.225 216.387 279.225 177.571 C 279.225 140.461 250.223 109.605 213.156 107.317 Z " fill="rgb(42,191,239)"/><path d=" M 201.161 135.983 C 196.771 135.983 193.199 139.363 193.199 143.518 L 193.193 189.863 L 100.669 136.551 C 98.289 135.174 95.153 135.106 92.713 136.373 C 90.158 137.695 88.57 140.226 88.57 142.984 L 88.564 202.209 C 88.564 206.361 92.136 209.744 96.52 209.744 C 100.91 209.744 104.482 206.361 104.482 202.209 L 104.485 156.389 L 197.012 209.701 C 198.254 210.418 199.681 210.799 201.149 210.802 L 201.155 210.802 C 202.477 210.802 203.793 210.481 204.974 209.876 C 207.523 208.557 209.106 206.025 209.112 203.267 L 209.117 143.518 C 209.117 139.363 205.545 135.983 201.161 135.983 Z " fill="rgb(61,118,186)"/><path d=" M 96.744 224.454 L 90.442 224.42 C 60.856 224.03 36.786 199.644 36.786 170.055 C 36.786 140.067 61.185 115.67 91.17 115.67 C 100.698 115.67 110.105 118.216 118.371 123.027 L 162.566 149.517 C 163.81 150.266 165.233 150.659 166.678 150.659 C 169.476 150.659 172.108 149.168 173.547 146.768 C 174.646 144.936 174.97 142.785 174.451 140.707 C 173.929 138.634 172.63 136.888 170.798 135.786 L 123.759 107.588 C 123.237 107.275 122.666 107.029 121.975 106.822 C 112.29 102.068 101.931 99.663 91.17 99.663 C 52.355 99.663 20.775 131.239 20.775 170.055 C 20.775 207.168 49.78 238.021 86.844 240.31 C 87.128 240.353 87.414 240.387 87.713 240.387 L 89.158 240.387 L 89.639 240.404 C 89.895 240.419 90.153 240.43 90.411 240.43 L 96.744 240.387 C 101.091 240.387 104.629 236.814 104.629 232.422 C 104.629 228.029 101.091 224.454 96.744 224.454 Z " fill="rgb(61,118,186)"/></g></svg>