<?xml version="1.0" encoding="UTF-8" standalone="no"?><!-- Generator: Gravit.io --><svg xmlns="http://www.w3.org/2000/svg" xmlns:xlink="http://www.w3.org/1999/xlink" style="isolation:isolate" viewBox="0 0 300 300" width="300pt" height="300pt"><defs><clipPath id="_clipPath_JjGqVwSl15U1lxTZiOZSdLKZx12DGqBb"><rect width="300" height="300"/></clipPath></defs><g clip-path="url(#_clipPath_JjGqVwSl15U1lxTZiOZSdLKZx12DGqBb)"><g style="isolation:isolate"><polygon points="220.442,267.079,72.942,270.543,2.5,150.818,79.558,27.63,227.058,24.166,297.5,143.89" fill="rgb(74,134,232)"/><polygon points="176.161,285.812,40.349,243.048,10.509,107.236,116.481,14.188,252.293,56.952,282.133,192.764" fill="rgb(36,193,178)"/><polygon points="244.151,246.839,111.866,282.284,15.027,185.446,50.473,53.161,182.757,17.716,279.596,114.554" fill="rgb(44,82,142)"/><polygon points="289.799,149.586,280.98,151.888,274.524,145.599,276.887,137.009,285.706,134.707,292.162,140.996" fill="rgb(36,193,178)"/><polygon points="55.92,239.539,47.101,241.841,40.645,235.553,43.008,226.963,51.827,224.661,58.283,230.949" fill="rgb(44,82,142)"/><polygon points="184.677,46.933,175.858,49.235,169.402,42.947,171.765,34.356,180.584,32.055,187.04,38.343" fill="rgb(74,134,232)"/></g><path d=" M 75.642 181.12 L 75.642 181.12 Q 68.552 181.12 62.246 179.233 L 62.246 179.233 L 62.246 179.233 Q 55.939 177.345 51.98 174.123 L 51.98 174.123 L 51.98 174.123 Q 49.862 172.558 49.862 169.703 L 49.862 169.703 L 49.862 169.703 Q 49.862 167.77 51.013 166.343 L 51.013 166.343 L 51.013 166.343 Q 52.164 164.916 53.729 164.916 L 53.729 164.916 L 53.729 164.916 Q 55.386 164.916 57.504 166.205 L 57.504 166.205 L 57.504 166.205 Q 61.463 169.059 65.79 170.348 L 65.79 170.348 L 65.79 170.348 Q 70.118 171.637 75.366 171.637 L 75.366 171.637 L 75.366 171.637 Q 82.087 171.637 85.678 169.289 L 85.678 169.289 L 85.678 169.289 Q 89.269 166.941 89.269 162.43 L 89.269 162.43 L 89.269 162.43 Q 89.269 158.931 85.908 157.043 L 85.908 157.043 L 85.908 157.043 Q 82.547 155.156 74.721 153.407 L 74.721 153.407 L 74.721 153.407 Q 66.619 151.657 61.555 149.355 L 61.555 149.355 L 61.555 149.355 Q 56.491 147.054 53.913 143.463 L 53.913 143.463 L 53.913 143.463 Q 51.335 139.872 51.335 134.348 L 51.335 134.348 L 51.335 134.348 Q 51.335 128.639 54.558 124.128 L 54.558 124.128 L 54.558 124.128 Q 57.78 119.616 63.535 117.084 L 63.535 117.084 L 63.535 117.084 Q 69.289 114.552 76.471 114.552 L 76.471 114.552 L 76.471 114.552 Q 89.637 114.552 97.923 121.55 L 97.923 121.55 L 97.923 121.55 Q 99.12 122.563 99.627 123.529 L 99.627 123.529 L 99.627 123.529 Q 100.133 124.496 100.133 125.969 L 100.133 125.969 L 100.133 125.969 Q 100.133 127.903 98.982 129.33 L 98.982 129.33 L 98.982 129.33 Q 97.831 130.757 96.266 130.757 L 96.266 130.757 L 96.266 130.757 Q 95.345 130.757 94.563 130.481 L 94.563 130.481 L 94.563 130.481 Q 93.78 130.205 92.491 129.468 L 92.491 129.468 L 92.491 129.468 Q 88.716 126.706 85.171 125.371 L 85.171 125.371 L 85.171 125.371 Q 81.627 124.036 76.471 124.036 L 76.471 124.036 L 76.471 124.036 Q 70.21 124.036 66.573 126.568 L 66.573 126.568 L 66.573 126.568 Q 62.936 129.1 62.936 133.611 L 62.936 133.611 L 62.936 133.611 Q 62.936 137.386 66.159 139.412 L 66.159 139.412 L 66.159 139.412 Q 69.381 141.437 77.115 143.187 L 77.115 143.187 L 77.115 143.187 Q 85.309 145.028 90.419 147.284 L 90.419 147.284 L 90.419 147.284 Q 95.529 149.54 98.246 153.038 L 98.246 153.038 L 98.246 153.038 Q 100.962 156.537 100.962 161.785 L 100.962 161.785 L 100.962 161.785 Q 100.962 167.494 97.785 171.867 L 97.785 171.867 L 97.785 171.867 Q 94.609 176.24 88.854 178.68 L 88.854 178.68 L 88.854 178.68 Q 83.1 181.12 75.642 181.12 L 75.642 181.12 L 75.642 181.12 Z  M 169.555 114.921 L 169.555 114.921 Q 172.133 114.921 173.698 116.532 L 173.698 116.532 L 173.698 116.532 Q 175.263 118.143 175.263 120.813 L 175.263 120.813 L 175.263 175.32 L 175.263 175.32 Q 175.263 177.898 173.79 179.371 L 173.79 179.371 L 173.79 179.371 Q 172.317 180.844 169.923 180.844 L 169.923 180.844 L 169.923 180.844 Q 167.529 180.844 166.148 179.371 L 166.148 179.371 L 166.148 179.371 Q 164.767 177.898 164.767 175.32 L 164.767 175.32 L 164.767 137.386 L 149.115 167.033 L 149.115 167.033 Q 148.01 169.059 146.721 170.026 L 146.721 170.026 L 146.721 170.026 Q 145.432 170.992 143.683 170.992 L 143.683 170.992 L 143.683 170.992 Q 141.934 170.992 140.645 170.072 L 140.645 170.072 L 140.645 170.072 Q 139.355 169.151 138.251 167.033 L 138.251 167.033 L 122.506 137.847 L 122.506 175.32 L 122.506 175.32 Q 122.506 177.806 121.079 179.325 L 121.079 179.325 L 121.079 179.325 Q 119.652 180.844 117.258 180.844 L 117.258 180.844 L 117.258 180.844 Q 114.864 180.844 113.483 179.371 L 113.483 179.371 L 113.483 179.371 Q 112.102 177.898 112.102 175.32 L 112.102 175.32 L 112.102 120.813 L 112.102 120.813 Q 112.102 118.143 113.621 116.532 L 113.621 116.532 L 113.621 116.532 Q 115.141 114.921 117.719 114.921 L 117.719 114.921 L 117.719 114.921 Q 121.309 114.921 123.335 118.88 L 123.335 118.88 L 143.775 157.826 L 164.123 118.88 L 164.123 118.88 Q 166.148 114.921 169.555 114.921 L 169.555 114.921 L 169.555 114.921 Z  M 195.059 180.292 L 195.059 180.292 Q 192.389 180.292 190.87 178.818 L 190.87 178.818 L 190.87 178.818 Q 189.35 177.345 189.35 174.675 L 189.35 174.675 L 189.35 120.997 L 189.35 120.997 Q 189.35 118.327 190.87 116.854 L 190.87 116.854 L 190.87 116.854 Q 192.389 115.381 195.059 115.381 L 195.059 115.381 L 213.289 115.381 L 213.289 115.381 Q 229.217 115.381 238.01 123.898 L 238.01 123.898 L 238.01 123.898 Q 246.803 132.414 246.803 147.79 L 246.803 147.79 L 246.803 147.79 Q 246.803 163.258 238.01 171.775 L 238.01 171.775 L 238.01 171.775 Q 229.217 180.292 213.289 180.292 L 213.289 180.292 L 195.059 180.292 L 195.059 180.292 Z  M 201.228 170.624 L 212.552 170.624 L 212.552 170.624 Q 234.926 170.624 234.926 147.79 L 234.926 147.79 L 234.926 147.79 Q 234.926 125.049 212.552 125.049 L 212.552 125.049 L 201.228 125.049 L 201.228 170.624 L 201.228 170.624 Z " fill="rgb(255,255,255)"/></g></svg>